<svg xmlns="http://www.w3.org/2000/svg" viewBox="0 0 200 70" width="200" height="70" preserveAspectRatio="xMidYMid meet" style="width: 100%; height: 100%;"><g clip-path="url(#animationMask_hGkEuQ7Jpf)"><g mask="url(#ly_huoVOFIYIL)"><g transform="matrix(1,0,0,1,0,-63)" opacity="1" style="display: block;"><g opacity="1" transform="matrix(1,0,0,1,100.217,99.775)"><path stroke-linecap="butt" stroke-linejoin="round" fill-opacity="0" stroke-dasharray="" stroke-dashoffset="0" stroke="rgb(255,255,255)" stroke-opacity="1" stroke-width="1.537" d=" M-86.75254821777344,-14.272464752197266 C-86.75254821777344,-14.272464752197266 -87.31155395507812,-7.907464504241943 -87.87255096435547,-6.347464561462402 C-88.43354797363281,-4.787464618682861 -88.87355041503906,-3.306464433670044 -88.95455169677734,-0.26346442103385925 C-89.03254699707031,2.7785356044769287 -89.59355163574219,7.260535717010498 -89.59355163574219,9.461535453796387 C-89.59355163574219,11.663535118103027 -88.9925537109375,13.18453598022461 -84.79154968261719,13.584535598754883 C-80.5875473022461,13.984535217285156 -76.5855484008789,14.985535621643066 -73.0645523071289,15.265535354614258 C-69.5405502319336,15.54653549194336 -66.9395523071289,16.06653594970703 -66.86054992675781,13.945535659790039 C-66.78054809570312,11.822535514831543 -67.37954711914062,11.142535209655762 -70.862548828125,10.743535995483398 C-74.34355163574219,10.343535423278809 -79.14655303955078,9.822535514831543 -81.3885498046875,9.822535514831543 C-83.63055419921875,9.822535514831543 -84.99054718017578,9.142535209655762 -84.79154968261719,6.339535713195801 C-84.591552734375,3.5385355949401855 -84.55055236816406,0.9765356183052063 -83.67155456542969,0.2955355942249298 C-82.78955078125,-0.38446441292762756 -80.26854705810547,0.055535588413476944 -77.66754913330078,0.13653558492660522 C-75.0645523071289,0.2175355851650238 -69.70255279541016,1.7365355491638184 -67.54154968261719,0.8565356135368347 C-65.37954711914062,-0.022464411333203316 -64.7385482788086,-2.9044644832611084 -67.42054748535156,-3.3844645023345947 C-70.10154724121094,-3.865464448928833 -76.42655181884766,-3.9454643726348877 -79.74855041503906,-4.105464458465576 C-83.06954956054688,-4.2664642333984375 -83.70954895019531,-4.5854644775390625 -83.54955291748047,-6.627464294433594 C-83.39054870605469,-8.668464660644531 -83.54955291748047,-10.9104642868042 -82.95055389404297,-11.790464401245117 C-82.34954833984375,-12.671463966369629 -82.02854919433594,-12.631464004516602 -80.02854919433594,-12.510464668273926 C-78.02655029296875,-12.391464233398438 -70.78254699707031,-11.630464553833008 -68.18054962158203,-11.51146411895752 C-65.57955169677734,-11.390464782714844 -62.93854904174805,-11.390464782714844 -62.816551208496094,-13.031464576721191 C-62.69755172729492,-14.671463966369629 -62.69755172729492,-15.832464218139648 -65.57955169677734,-15.95346450805664 C-68.4615478515625,-16.072463989257812 -76.94754791259766,-16.51446533203125 -80.50855255126953,-16.792465209960938 C-84.07054901123047,-17.07346534729004 -86.43154907226562,-18.033464431762695 -86.75254821777344,-14.272464752197266z M-48.51740264892578,1.1763670444488525 C-48.50340270996094,1.5773669481277466 -47.553401947021484,5.850367069244385 -48.46739959716797,10.829366683959961 C-49.380401611328125,15.808366775512695 -49.85940170288086,18.73936653137207 -51.73139953613281,18.56136703491211 C-53.60540008544922,18.384366989135742 -53.790401458740234,15.672367095947266 -53.05840301513672,12.606367111206055 C-52.32440185546875,9.540367126464844 -52.742401123046875,6.725367069244385 -52.73640060424805,2.4243669509887695 C-52.73040008544922,-1.8766330480575562 -52.95240020751953,-7.163632869720459 -52.117401123046875,-8.772632598876953 C-51.281402587890625,-10.382633209228516 -48.245399475097656,-11.018632888793945 -46.06740188598633,-7.71763277053833 C-43.88640213012695,-4.415633201599121 -40.15439987182617,1.1633670330047607 -37.42539978027344,4.196366786956787 C-34.698402404785156,7.228366851806641 -33.687400817871094,8.451367378234863 -33.51740264892578,6.65736722946167 C-33.3474006652832,4.8653669357299805 -32.19540023803711,-3.912632942199707 -31.932401657104492,-6.2596330642700195 C-31.670400619506836,-8.606633186340332 -30.919401168823242,-10.584632873535156 -29.23040199279785,-10.58663272857666 C-27.541400909423828,-10.58663272857666 -26.15340232849121,-9.126632690429688 -26.72140121459961,-5.683632850646973 C-27.288400650024414,-2.240633010864258 -28.66440200805664,6.352366924285889 -28.964401245117188,10.78736686706543 C-29.26340103149414,15.220367431640625 -29.81340217590332,20.597366333007812 -33.492401123046875,17.836366653442383 C-37.17140197753906,15.075366973876953 -37.68939971923828,10.362366676330566 -40.703399658203125,7.382367134094238 C-43.71739959716797,4.403367042541504 -45.08140182495117,0.9793670177459717 -46.185401916503906,-0.09063299745321274 C-47.290401458740234,-1.1606329679489136 -48.65140151977539,-2.4956328868865967 -48.51740264892578,1.1763670444488525z M-4.378415107727051,12.098289489746094 C-4.378415107727051,12.098289489746094 -3.9654152393341064,5.659289360046387 -3.9714152812957764,2.4412894248962402 C-3.9774153232574463,-0.7777106761932373 -3.548415184020996,-1.9357106685638428 -5.739415168762207,-1.9667106866836548 C-7.930415153503418,-1.9947106838226318 -13.89041519165039,-1.6517106294631958 -15.196414947509766,-3.3147106170654297 C-16.503416061401367,-4.978710651397705 -15.971415519714355,-6.79771089553833 -14.072415351867676,-7.088710784912109 C-12.173415184020996,-7.378710746765137 -7.7714152336120605,-5.865710735321045 -4.1484150886535645,-6.258710861206055 C-0.5234152674674988,-6.651710510253906 5.248584747314453,-6.7637104988098145 8.635584831237793,-7.119710445404053 C12.023584365844727,-7.474710464477539 14.03858470916748,-6.487710475921631 13.183585166931152,-4.130710601806641 C12.329585075378418,-1.7727106809616089 8.487585067749023,-2.804710626602173 5.364584922790527,-2.5707106590270996 C2.242584705352783,-2.3367106914520264 1.0825847387313843,-1.7127107381820679 0.7905846834182739,0.8812893033027649 C0.49958470463752747,3.4782893657684326 1.2375847101211548,7.251289367675781 0.6365846991539001,9.407289505004883 C0.0355847105383873,11.564289093017578 0.50858473777771,14.408288955688477 0.44658470153808594,16.645288467407227 C0.3845846951007843,18.88228988647461 -0.32941529154777527,22.95728874206543 -2.5944151878356934,22.98128890991211 C-4.856415271759033,23.002288818359375 -5.493415355682373,21.480289459228516 -5.206415176391602,19.127288818359375 C-4.918415069580078,16.776288986206055 -4.378415107727051,12.098289489746094 -4.378415107727051,12.098289489746094z M20.000104904174805,-6.712604522705078 C20.000104904174805,-6.712604522705078 21.226104736328125,-0.44360440969467163 21.120105743408203,1.2103955745697021 C21.01410484313965,2.8653955459594727 21.0011043548584,4.41139554977417 21.768104553222656,7.357395648956299 C22.535104751586914,10.301395416259766 23.239105224609375,14.763395309448242 23.849105834960938,16.878395080566406 C24.459104537963867,18.994396209716797 25.459104537963867,20.288394927978516 29.60610580444336,19.50839614868164 C33.756103515625,18.72739601135254 37.87810516357422,18.579395294189453 41.33910369873047,17.87239646911621 C44.80210494995117,17.165395736694336 47.44410705566406,16.944395065307617 46.934104919433594,14.885396003723145 C46.42310333251953,12.823395729064941 45.658103942871094,12.336395263671875 42.201107025146484,12.91739559173584 C38.7461051940918,13.498395919799805 33.98710632324219,14.330395698547363 31.833105087280273,14.951395988464355 C29.678104400634766,15.572395324707031 28.184104919433594,15.296395301818848 27.59810447692871,12.547395706176758 C27.013105392456055,9.801395416259766 26.342105865478516,7.327395439147949 26.99910545349121,6.430395603179932 C27.6571044921875,5.532395362854004 30.20110511779785,5.2563958168029785 32.723106384277344,4.612395763397217 C35.2461051940918,3.968395471572876 40.81910705566406,3.9413955211639404 42.652103424072266,2.4973955154418945 C44.485103607177734,1.0533956289291382 44.30210494995117,-1.8936043977737427 41.592105865478516,-1.6116044521331787 C38.88310623168945,-1.3296043872833252 32.78410339355469,0.3463955819606781 29.548105239868164,1.1123955249786377 C26.312105178833008,1.8783955574035645 25.609106063842773,1.7503955364227295 25.19610595703125,-0.25560441613197327 C24.783105850219727,-2.2606043815612793 24.009105682373047,-4.3716044425964355 24.34110450744629,-5.382604598999023 C24.674104690551758,-6.396604537963867 24.994104385375977,-6.443604469299316 26.948104858398438,-6.883604526519775 C28.905105590820312,-7.324604511260986 36.076107025146484,-8.603604316711426 38.60910415649414,-9.20860481262207 C41.14210510253906,-9.813604354858398 43.68110656738281,-10.545604705810547 43.34110641479492,-12.155604362487793 C43.00110626220703,-13.764604568481445 42.678104400634766,-14.882604598999023 39.877105712890625,-14.197604179382324 C37.075103759765625,-13.512604713439941 28.799104690551758,-11.584604263305664 25.300106048583984,-10.866604804992676 C21.800106048583984,-10.148604393005371 19.265104293823242,-10.415604591369629 20.000104904174805,-6.712604522705078z M76.24522399902344,-13.028130531311035 C75.61522674560547,-10.056131362915039 72.46322631835938,-8.976130485534668 67.45022583007812,-7.355131149291992 C62.43822479248047,-5.734130859375 61.35722732543945,-6.574131011962891 60.786224365234375,-7.38313102722168 C60.21522521972656,-8.194130897521973 59.58522415161133,-11.977130889892578 59.58522415161133,-11.977130889892578 C58.89622497558594,-16.000131607055664 61.92722702026367,-15.910130500793457 65.62022399902344,-17.1401309967041 C69.31222534179688,-18.37013053894043 70.66322326660156,-18.820131301879883 73.3042221069336,-18.7601318359375 C75.94622802734375,-18.700130462646484 76.87522888183594,-16.000131607055664 76.24522399902344,-13.028130531311035z M84.91261291503906,2.3556435108184814 C83.29061126708984,1.813643455505371 82.69161224365234,1.7536433935165405 80.77061462402344,-0.8883565664291382 C78.849609375,-3.5303566455841064 78.1296157836914,-3.8893566131591797 77.0776138305664,-5.540356636047363 C76.026611328125,-7.190356731414795 79.1506118774414,-9.202356338500977 80.2306137084961,-13.855356216430664 C81.31061553955078,-18.50835609436035 79.53861236572266,-20.339357376098633 77.37760925292969,-21.90035629272461 C75.21661376953125,-23.46135711669922 72.0066146850586,-24.603357315063477 69.36260986328125,-23.941356658935547 C66.72261047363281,-23.280357360839844 60.8386116027832,-21.359355926513672 58.94761276245117,-20.63935661315918 C57.05561447143555,-19.919357299804688 55.493614196777344,-19.618356704711914 55.134613037109375,-18.237356185913086 C54.775611877441406,-16.856355667114258 54.957611083984375,-11.184356689453125 55.55561447143555,-8.423357009887695 C56.15461349487305,-5.660356521606445 57.506614685058594,2.9846434593200684 57.80661392211914,6.256643295288086 C58.10661315917969,9.527643203735352 59.72761154174805,13.010643005371094 61.708614349365234,12.2596435546875 C63.689613342285156,11.50864315032959 62.881614685058594,7.7276434898376465 62.400611877441406,5.355643272399902 C61.919612884521484,2.9846434593200684 61.64961242675781,-1.6983565092086792 61.64961242675781,-1.6983565092086792 C61.64961242675781,-1.6983565092086792 63.20961380004883,-2.297356605529785 66.45161437988281,-3.1983566284179688 C69.69261169433594,-4.099356651306152 72.1256103515625,-3.619356632232666 73.98661041259766,-2.0883564949035645 C75.84661102294922,-0.5573565363883972 77.40961456298828,2.5326433181762695 79.60061645507812,4.995643615722656 C81.79061126708984,7.456643581390381 86.05561065673828,7.159643650054932 86.71461486816406,5.237643241882324 C87.37361145019531,3.315643548965454 86.5326156616211,2.8966434001922607 84.91261291503906,2.3556435108184814z"></path></g></g></g></g><defs><clipPath id="animationMask_hGkEuQ7Jpf"><rect width="200" height="70" x="0" y="0"></rect></clipPath><mask id="ly_huoVOFIYIL" mask-type="alpha"><g transform="matrix(1,0,0,1,90,-155)" opacity="1" style="display: block;"><g opacity="1" transform="matrix(1,0,0,1.7297,10.959,186.653)"><path fill="rgb(255,255,255)" fill-opacity="1" d=" M97.95899963378906,-17.653499603271484 C97.95899963378906,-17.653499603271484 97.95899963378906,17.653499603271484 97.95899963378906,17.653499603271484 C97.95899963378906,17.653499603271484 -97.95899963378906,17.653499603271484 -97.95899963378906,17.653499603271484 C-97.95899963378906,17.653499603271484 -97.95899963378906,-17.653499603271484 -97.95899963378906,-17.653499603271484 C-97.95899963378906,-17.653499603271484 97.95899963378906,-17.653499603271484 97.95899963378906,-17.653499603271484z"></path><path stroke-linecap="butt" stroke-linejoin="miter" fill-opacity="0" stroke-miterlimit="4" stroke-dasharray="" stroke-dashoffset="0" stroke="rgb(255,255,255)" stroke-opacity="1" stroke-width="5" d=" M97.95899963378906,-17.653499603271484 C97.95899963378906,-17.653499603271484 97.95899963378906,17.653499603271484 97.95899963378906,17.653499603271484 C97.95899963378906,17.653499603271484 -97.95899963378906,17.653499603271484 -97.95899963378906,17.653499603271484 C-97.95899963378906,17.653499603271484 -97.95899963378906,-17.653499603271484 -97.95899963378906,-17.653499603271484 C-97.95899963378906,-17.653499603271484 97.95899963378906,-17.653499603271484 97.95899963378906,-17.653499603271484z"></path></g></g></mask></defs></svg>