<svg xmlns="http://www.w3.org/2000/svg" viewBox="0 0 1360 420" width="1000" height="400" preserveAspectRatio="xMidYMid meet" style="width: 100%; height: 100%;"><g clip-path="url(#animationMask_yNdmffQ1pq)"><g transform="matrix(1,0,0,1,-68,-40)" opacity="1" style="display: block;"><g opacity="1" transform="matrix(1,0,0,1,756.198,223.87)"><path fill="rgb(255,255,255)" fill-opacity="1" d=" M115.7020034790039,14.329999923706055 C115.00199890136719,13.529999732971191 81.2020034790039,-24.371000289916992 82.00199890136719,-26.67099952697754 C82.00199890136719,-26.67099952697754 123.60199737548828,-120.07099914550781 123.60199737548828,-120.07099914550781 C123.74199676513672,-120.42400360107422 123.81400299072266,-120.80000305175781 123.81400299072266,-121.18000030517578 C123.81400299072266,-122.82599639892578 122.45999908447266,-124.18000030517578 120.81500244140625,-124.18000030517578 C120.28299713134766,-124.18000030517578 119.76100158691406,-124.03800201416016 119.302001953125,-123.7699966430664 C119.302001953125,-123.7699966430664 49.500999450683594,-85.47000122070312 49.500999450683594,-85.47000122070312 C49.0620002746582,-85.23100280761719 48.569000244140625,-85.10600280761719 48.069000244140625,-85.10600280761719 C46.58700180053711,-85.10600280761719 45.316001892089844,-86.20500183105469 45.10100173950195,-87.6709976196289 C45.10100173950195,-87.6709976196289 32.60200119018555,-165.1699981689453 32.60200119018555,-165.1699981689453 C32.45800018310547,-166.70399475097656 31.155000686645508,-167.89100646972656 29.614999771118164,-167.89100646972656 C28.45599937438965,-167.89100646972656 27.395999908447266,-167.21800231933594 26.900999069213867,-166.1699981689453 C26.900999069213867,-166.1699981689453 -6.8979997634887695,-99.6709976196289 -6.8979997634887695,-99.6709976196289 C-7.413000106811523,-98.6780014038086 -8.442000389099121,-98.0510025024414 -9.560999870300293,-98.0510025024414 C-10.468999862670898,-98.0510025024414 -11.329999923706055,-98.46299743652344 -11.89900016784668,-99.16999816894531 C-11.89900016784668,-99.16999816894531 -48.49800109863281,-143.17100524902344 -48.49800109863281,-143.17100524902344 C-49.06800079345703,-143.85299682617188 -49.91299819946289,-144.2469940185547 -50.801998138427734,-144.2469940185547 C-52.4010009765625,-144.2469940185547 -53.731998443603516,-142.96800231933594 -53.79800033569336,-141.3699951171875 C-53.79800033569336,-141.3699951171875 -55.499000549316406,-97.37100219726562 -55.499000549316406,-97.37100219726562 C-55.5629997253418,-95.77200317382812 -56.895999908447266,-94.48999786376953 -58.49700164794922,-94.48999786376953 C-59.189998626708984,-94.48999786376953 -59.862998962402344,-94.73100280761719 -60.39899826049805,-95.1709976196289 C-69.54299926757812,-102.6500015258789 -79.46700286865234,-109.12000274658203 -89.9990005493164,-114.47100067138672 C-97.9990005493164,-117.47100067138672 -97.7979965209961,-117.97100067138672 -98.697998046875,-113.77100372314453 C-99.697998046875,-109.47100067138672 -98.197998046875,-97.56999969482422 -98.697998046875,-89.06999969482422 C-98.7979965209961,-87.2699966430664 -83.197998046875,-22.570999145507812 -83.39800262451172,-17.871000289916992 C-83.5979995727539,-10.470999717712402 -111.197998046875,-35.06999969482422 -112.99800109863281,-36.869998931884766 C-114.99800109863281,-38.77000045776367 -118.39900207519531,-37.16999816894531 -118.0989990234375,-34.470001220703125 C-117.5989990234375,-27.670000076293945 -94.6989974975586,9.529000282287598 -92.5989990234375,15.128999710083008 C-88.58399963378906,24.913000106811523 -86.41400146484375,35.35599899291992 -86.1989974975586,45.92900085449219 C-86.39900207519531,52.62900161743164 -130.49899291992188,131.92999267578125 -130.49899291992188,131.92999267578125 C-130.552001953125,132.15499877929688 -130.5780029296875,132.38499450683594 -130.5780029296875,132.61700439453125 C-130.5780029296875,134.26199340820312 -129.22300720214844,135.61700439453125 -127.5780029296875,135.61700439453125 C-127.13500213623047,135.61700439453125 -126.6989974975586,135.51800537109375 -126.29900360107422,135.32899475097656 C-92.43900299072266,119.01599884033203 -59.99300003051758,99.91699981689453 -29.29800033569336,78.22899627685547 C-28.802000045776367,77.89399719238281 -28.218000411987305,77.71600341796875 -27.6200008392334,77.71600341796875 C-26.23200035095215,77.71600341796875 -25.016000747680664,78.6780014038086 -24.698999404907227,80.02899932861328 C-24.698999404907227,80.02899932861328 -7.499000072479248,165.32899475097656 -7.499000072479248,165.32899475097656 C-7.2820000648498535,166.79400634765625 -6.01200008392334,167.89100646972656 -4.531000137329102,167.89100646972656 C-3.436000108718872,167.89100646972656 -2.4230000972747803,167.2899932861328 -1.8980000019073486,166.32899475097656 C-1.8980000019073486,166.32899475097656 36.10100173950195,99.62999725341797 36.10100173950195,99.62999725341797 C36.62900161743164,98.677001953125 37.63600158691406,98.08300018310547 38.72600173950195,98.08300018310547 C39.28200149536133,98.08300018310547 39.827999114990234,98.23699951171875 40.30099868774414,98.52899932861328 C48.9010009765625,103.3290023803711 77.7020034790039,119.52899932861328 97.802001953125,131.5290069580078 C98.26499938964844,131.80299377441406 98.79299926757812,131.947998046875 99.33100128173828,131.947998046875 C100.97699737548828,131.947998046875 102.33100128173828,130.593994140625 102.33100128173828,128.947998046875 C102.33100128173828,128.80799865722656 102.3219985961914,128.66799926757812 102.302001953125,128.5290069580078 C98.36499786376953,101.60700225830078 95.02899932861328,74.5999984741211 92.3010025024414,47.52899932861328 C92.10800170898438,46.0099983215332 93.10900115966797,44.57400131225586 94.60099792480469,44.229000091552734 C94.60099792480469,44.229000091552734 128.4010009765625,35.52899932861328 128.4010009765625,35.52899932861328 C129.68600463867188,35.16299819946289 130.5780029296875,33.98099899291992 130.5780029296875,32.64500045776367 C130.5780029296875,31.899999618530273 130.302001953125,31.18199920654297 129.802001953125,30.6299991607666 C126.2020034790039,26.6299991607666 120.2020034790039,20.030000686645508 115.7020034790039,14.329999923706055z" style="transform: scale(1.08579);"></path></g><g opacity="1" transform="matrix(1,0,0,1,0,0)" style="transform: translateX(0px);"><g opacity="1" transform="matrix(1,0,0,1,995.2,381.5)"><path fill="rgb(255,255,255)" fill-opacity="1" d=" M21.200000762939453,-70 C20.799999237060547,-70.69999694824219 19.899999618530273,-71 19.200000762939453,-70.5999984741211 C14.300000190734863,-67.69999694824219 9.699999809265137,-64.5999984741211 7.199999809265137,-62.20000076293945 C5.822999954223633,-60.875999450683594 4.488999843597412,-59.50899887084961 3.200000047683716,-58.099998474121094 C-1.6180000305175781,-52.2599983215332 -7.660999774932861,-47.54800033569336 -14.5,-44.29999923706055 C-14.5,-44.29999923706055 -19.399999618530273,-41.900001525878906 -19.399999618530273,-41.900001525878906 C-20.299999237060547,-41.5 -20.799999237060547,-40.5 -20.799999237060547,-39.400001525878906 C-21.21299934387207,-33.05500030517578 -23.09600067138672,-26.892000198364258 -26.299999237060547,-21.399999618530273 C-27.299999237060547,-19.600000381469727 -28,-17.899999618530273 -28.5,-16.700000762939453 C-29.100000381469727,-14.800000190734863 -28.299999237060547,-12.199999809265137 -27.5,-9.100000381469727 C-26.399999618530273,-5.400000095367432 -25.200000762939453,-1.100000023841858 -26,3.5999999046325684 C-27,8.800000190734863 -30.299999237060547,12.699999809265137 -33,15.199999809265137 C-33.900001525878906,15.899999618530273 -34,17 -33.400001525878906,17.899999618530273 C-30.899999618530273,21.899999618530273 -29.399999618530273,26.700000762939453 -29.399999618530273,31.799999237060547 C-29.399999618530273,37.900001525878906 -29.899999618530273,46.099998474121094 -30.399999618530273,51.900001525878906 C-30.399999618530273,51.900001525878906 -28,60 -28,60 C-25.200000762939453,68.5 -20.600000381469727,71 -15.800000190734863,69.4000015258789 C-11.100000381469727,67.69999694824219 -9.800000190734863,57.900001525878906 -8.100000381469727,50.400001525878906 C-6.400000095367432,43.099998474121094 -5.099999904632568,31.100000381469727 -6.800000190734863,27.700000762939453 C-6.800000190734863,27.700000762939453 -8,25 -8,25 C-8,25 -16.5,16.899999618530273 -16.5,16.899999618530273 C-17.030000686645508,16.3700008392334 -17.327999114990234,15.649999618530273 -17.327999114990234,14.899999618530273 C-17.327999114990234,13.347999572753906 -16.052000045776367,12.071999549865723 -14.5,12.071999549865723 C-13.75,12.071999549865723 -13.029999732971191,12.369999885559082 -12.5,12.899999618530273 C-12.5,12.899999618530273 -5.900000095367432,19.100000381469727 -5.900000095367432,19.100000381469727 C-2.9000000953674316,16.100000381469727 2.5,9.399999618530273 4.300000190734863,4.599999904632568 C6.011000156402588,-0.625 6.822000026702881,-6.103000164031982 6.699999809265137,-11.600000381469727 C6.699999809265137,-12.5 6.699999809265137,-13.399999618530273 7,-14.300000190734863 C5.5,-17.100000381469727 2.4000000953674316,-22 -1.7000000476837158,-22 C-1.7000000476837158,-22 -1.7999999523162842,-22 -1.7999999523162842,-22 C-3.36299991607666,-22 -4.650000095367432,-23.28700065612793 -4.650000095367432,-24.850000381469727 C-4.650000095367432,-26.413000106811523 -3.36299991607666,-27.700000762939453 -1.7999999523162842,-27.700000762939453 C-1.7999999523162842,-27.700000762939453 -1.7000000476837158,-27.700000762939453 -1.7000000476837158,-27.700000762939453 C3.799999952316284,-27.700000762939453 7.699999809265137,-23.700000762939453 10.199999809265137,-20 C10.5,-20.299999237060547 10.899999618530273,-20.399999618530273 11.300000190734863,-20.600000381469727 C14.300000190734863,-21.299999237060547 26.799999237060547,-27.399999618530273 31.100000381469727,-41.29999923706055 C32.79999923706055,-47 33.599998474121094,-51.29999923706055 34,-54.599998474121094 C34,-55.099998474121094 33.79999923706055,-55.599998474121094 33.29999923706055,-55.900001525878906 C28.150999069213867,-59.513999938964844 23.989999771118164,-64.36199951171875 21.200000762939453,-70z"></path></g><g opacity="1" transform="matrix(1,0,0,1,1061.512,392.65)"><path fill="rgb(255,255,255)" fill-opacity="1" d=" M3.0880000591278076,-48.75 C0.5879999995231628,-48.849998474121094 -4.311999797821045,-48.45000076293945 -8.411999702453613,-48.04999923706055 C-9.777000427246094,-47.86199951171875 -10.831000328063965,-46.72600173950195 -10.913000106811523,-45.349998474121094 C-11.213000297546387,-41.349998474121094 -11.51200008392334,-36.45000076293945 -11.51200008392334,-31.950000762939453 C-11.51200008392334,-22.549999237060547 -12.312000274658203,-20.149999618530273 -16.711999893188477,-10.949999809265137 C-20.687000274658203,-1.4170000553131104 -20.506000518798828,9.355999946594238 -16.211999893188477,18.75 C-12.312000274658203,28.75 -15.711999893188477,34.45000076293945 -13.51200008392334,41.650001525878906 C-11.312000274658203,48.849998474121094 -7.4120001792907715,46.349998474121094 -1.0119999647140503,41.75 C5.288000106811523,37.150001525878906 3.48799991607666,29.75 3.687999963760376,24.649999618530273 C3.687999963760376,19.649999618530273 4.48799991607666,15.25 4.188000202178955,8.449999809265137 C3.98799991607666,1.5499999523162842 -0.6119999885559082,-1.149999976158142 -4.01200008392334,-3.1500000953674316 C-7.4120001792907715,-5.150000095367432 -5.611999988555908,-7.349999904632568 0.4880000054836273,-5.349999904632568 C6.5879998207092285,-3.3499999046325684 8.687999725341797,-5.449999809265137 9.687999725341797,-10.050000190734863 C10.588000297546387,-14.649999618530273 10.088000297546387,-22.049999237060547 15.687999725341797,-29.75 C19.187999725341797,-34.54999923706055 19.687000274658203,-36.25 20.586999893188477,-38.75 C20.687000274658203,-39.25 20.58799934387207,-39.75 20.08799934387207,-40.150001525878906 C14.088000297546387,-44.54999923706055 5.888000011444092,-48.650001525878906 3.0880000591278076,-48.75z"></path></g><g opacity="1" transform="matrix(1,0,0,1,887.6,217.8)"><path fill="rgb(0,0,0)" fill-opacity="1" d=" M104.80000305175781,30.399999618530273 C107.80000305175781,33 119.80000305175781,-36.70000076293945 105.0999984741211,-35.099998474121094 C90.30000305175781,-33.5 85.5999984741211,-32.099998474121094 68.5999984741211,-27.299999237060547 C51.70000076293945,-22.600000381469727 47,-23.600000381469727 31.600000381469727,-25.700000762939453 C16,-27.799999237060547 1.600000023841858,-30.200000762939453 -11.399999618530273,-28.5 C-19.899999618530273,-27.5 -28.399999618530273,-25.299999237060547 -36.099998474121094,-21.899999618530273 C-38.70000076293945,-20.700000762939453 -41.20000076293945,-19.600000381469727 -43.900001525878906,-18.700000762939453 C-54.29999923706055,-15.300000190734863 -62.900001525878906,-13.699999809265137 -69.9000015258789,-12.399999618530273 C-77.96399688720703,-11.527999877929688 -85.77799987792969,-9.081000328063965 -92.9000015258789,-5.199999809265137 C-104.4000015258789,1.7999999523162842 -111.4000015258789,4.800000190734863 -116.69999694824219,7 C-118.19999694824219,7.599999904632568 -119.80000305175781,9.399999618530273 -119.80000305175781,11 C-119.80000305175781,13 -117.80000305175781,15 -114.0999984741211,16.5 C-100.30000305175781,22.5 -85.5999984741211,19.299999237060547 -79.80000305175781,17.600000381469727 C-70,14.699999809265137 -63.79999923706055,13.100000381469727 -51.099998474121094,15 C-44.79999923706055,16 -35.400001525878906,13.199999809265137 -27.100000381469727,10.800000190734863 C-21.700000762939453,9.199999809265137 -16.899999618530273,7.800000190734863 -13.100000381469727,7.599999904632568 C-13.100000381469727,7.599999904632568 -12.800000190734863,7.400000095367432 -12.800000190734863,7.400000095367432 C-10.600000381469727,6.400000095367432 -11.100000381469727,5.900000095367432 -12.800000190734863,2.9000000953674316 C-14.5,-0.10000000149011612 -13.100000381469727,-0.699999988079071 -6.599999904632568,1.600000023841858 C0,4 1,4.599999904632568 16.899999618530273,10.899999618530273 C32.900001525878906,17.200000762939453 47.900001525878906,14.899999618530273 52.20000076293945,15.300000190734863 C56.400001525878906,15.600000381469727 55.20000076293945,14.300000190734863 54.79999923706055,12 C54.29999923706055,9.600000381469727 52.29999923706055,8.100000381469727 52.79999923706055,7 C53.20000076293945,5.800000190734863 55.20000076293945,5.599999904632568 56.79999923706055,7.5 C58.5,9.399999618530273 67.30000305175781,17.5 75.0999984741211,25.700000762939453 C82.9000015258789,33.900001525878906 103.5,36.70000076293945 101.0999984741211,34.70000076293945 C96.0999984741211,30.399999618530273 91.69999694824219,24.899999618530273 90.30000305175781,21.100000381469727 C90.17900085449219,20.780000686645508 90.11799621582031,20.441999435424805 90.11799621582031,20.100000381469727 C90.11799621582031,18.54599952697754 91.39600372314453,17.26799964904785 92.94999694824219,17.26799964904785 C94.1259994506836,17.26799964904785 95.18499755859375,18 95.5999984741211,19.100000381469727 C96.5,21.600000381469727 100,26.299999237060547 104.80000305175781,30.399999618530273z"></path><path stroke-linecap="butt" stroke-linejoin="round" fill-opacity="0" stroke-dasharray="" stroke-dashoffset="0" stroke="rgb(0,0,0)" stroke-opacity="1" stroke-width="16.168" d=" M104.80000305175781,30.399999618530273 C107.80000305175781,33 119.80000305175781,-36.70000076293945 105.0999984741211,-35.099998474121094 C90.30000305175781,-33.5 85.5999984741211,-32.099998474121094 68.5999984741211,-27.299999237060547 C51.70000076293945,-22.600000381469727 47,-23.600000381469727 31.600000381469727,-25.700000762939453 C16,-27.799999237060547 1.600000023841858,-30.200000762939453 -11.399999618530273,-28.5 C-19.899999618530273,-27.5 -28.399999618530273,-25.299999237060547 -36.099998474121094,-21.899999618530273 C-38.70000076293945,-20.700000762939453 -41.20000076293945,-19.600000381469727 -43.900001525878906,-18.700000762939453 C-54.29999923706055,-15.300000190734863 -62.900001525878906,-13.699999809265137 -69.9000015258789,-12.399999618530273 C-77.96399688720703,-11.527999877929688 -85.77799987792969,-9.081000328063965 -92.9000015258789,-5.199999809265137 C-104.4000015258789,1.7999999523162842 -111.4000015258789,4.800000190734863 -116.69999694824219,7 C-118.19999694824219,7.599999904632568 -119.80000305175781,9.399999618530273 -119.80000305175781,11 C-119.80000305175781,13 -117.80000305175781,15 -114.0999984741211,16.5 C-100.30000305175781,22.5 -85.5999984741211,19.299999237060547 -79.80000305175781,17.600000381469727 C-70,14.699999809265137 -63.79999923706055,13.100000381469727 -51.099998474121094,15 C-44.79999923706055,16 -35.400001525878906,13.199999809265137 -27.100000381469727,10.800000190734863 C-21.700000762939453,9.199999809265137 -16.899999618530273,7.800000190734863 -13.100000381469727,7.599999904632568 C-13.100000381469727,7.599999904632568 -12.800000190734863,7.400000095367432 -12.800000190734863,7.400000095367432 C-10.600000381469727,6.400000095367432 -11.100000381469727,5.900000095367432 -12.800000190734863,2.9000000953674316 C-14.5,-0.10000000149011612 -13.100000381469727,-0.699999988079071 -6.599999904632568,1.600000023841858 C0,4 1,4.599999904632568 16.899999618530273,10.899999618530273 C32.900001525878906,17.200000762939453 47.900001525878906,14.899999618530273 52.20000076293945,15.300000190734863 C56.400001525878906,15.600000381469727 55.20000076293945,14.300000190734863 54.79999923706055,12 C54.29999923706055,9.600000381469727 52.29999923706055,8.100000381469727 52.79999923706055,7 C53.20000076293945,5.800000190734863 55.20000076293945,5.599999904632568 56.79999923706055,7.5 C58.5,9.399999618530273 67.30000305175781,17.5 75.0999984741211,25.700000762939453 C82.9000015258789,33.900001525878906 103.5,36.70000076293945 101.0999984741211,34.70000076293945 C96.0999984741211,30.399999618530273 91.69999694824219,24.899999618530273 90.30000305175781,21.100000381469727 C90.17900085449219,20.780000686645508 90.11799621582031,20.441999435424805 90.11799621582031,20.100000381469727 C90.11799621582031,18.54599952697754 91.39600372314453,17.26799964904785 92.94999694824219,17.26799964904785 C94.1259994506836,17.26799964904785 95.18499755859375,18 95.5999984741211,19.100000381469727 C96.5,21.600000381469727 100,26.299999237060547 104.80000305175781,30.399999618530273z"></path></g><g opacity="1" transform="matrix(1,0,0,1,1097.9,227.25)"><path fill="rgb(255,255,255)" fill-opacity="1" d=" M299.1000061035156,66.75 C299.1000061035156,66.75 300.6000061035156,66.8499984741211 300.6000061035156,66.8499984741211 C330.1000061035156,-32.45000076293945 301.6000061035156,-87.75 267.1000061035156,-118.6500015258789 C250.5,-120.6500015258789 223.10000610351562,-122.25 200.5,-120.44999694824219 C168.3000030517578,-117.8499984741211 165.6999969482422,-109.1500015258789 137.10000610351562,-108.44999694824219 C108.4000015258789,-107.75 97.0999984741211,-105.1500015258789 77.0999984741211,-93.44999694824219 C57.099998474121094,-81.6500015258789 37.099998474121094,-82.8499984741211 20.5,-82.8499984741211 C3.799999952316284,-82.8499984741211 -6.300000190734863,-76.94999694824219 -30.5,-75.3499984741211 C-54.70000076293945,-73.6500015258789 -68.80000305175781,-64.44999694824219 -74.19999694824219,-58.650001525878906 C-82.63500213623047,-50.63600158691406 -93.59600067138672,-45.792999267578125 -105.19999694824219,-44.95000076293945 C-120,-43.349998474121094 -124.69999694824219,-41.95000076293945 -141.6999969482422,-37.25 C-158.60000610351562,-32.54999923706055 -163.3000030517578,-33.45000076293945 -178.6999969482422,-35.54999923706055 C-194.3000030517578,-37.650001525878906 -208.6999969482422,-40.04999923706055 -221.6999969482422,-38.45000076293945 C-230.1999969482422,-37.45000076293945 -238.6999969482422,-35.150001525878906 -246.39999389648438,-31.75 C-249,-30.649999618530273 -251.5,-29.450000762939453 -254.1999969482422,-28.549999237060547 C-264.6000061035156,-25.149999618530273 -273.20001220703125,-23.549999237060547 -280.20001220703125,-22.350000381469727 C-288.27099609375,-21.44700050354004 -296.08599853515625,-18.965999603271484 -303.20001220703125,-15.050000190734863 C-314.70001220703125,-8.149999618530273 -321.70001220703125,-5.050000190734863 -327,-2.8499999046325684 C-328.5,-2.25 -330.1000061035156,-0.44999998807907104 -330.1000061035156,1.149999976158142 C-330.1000061035156,3.049999952316284 -328.1000061035156,5.050000190734863 -324.3999938964844,6.650000095367432 C-310.6000061035156,12.649999618530273 -295.8999938964844,9.449999809265137 -290.1000061035156,7.650000095367432 C-280.29998779296875,4.849999904632568 -274.1000061035156,3.25 -261.3999938964844,5.150000095367432 C-255.10000610351562,6.050000190734863 -245.6999969482422,3.3499999046325684 -237.39999389648438,0.949999988079071 C-232,-0.6499999761581421 -227.1999969482422,-2.049999952316284 -223.39999389648438,-2.3499999046325684 C-223.39999389648438,-2.3499999046325684 -223.10000610351562,-2.450000047683716 -223.10000610351562,-2.450000047683716 C-220.89999389648438,-3.450000047683716 -221.39999389648438,-4.050000190734863 -223.10000610351562,-6.949999809265137 C-224.8000030517578,-9.949999809265137 -223.39999389648438,-10.550000190734863 -216.89999389648438,-8.25 C-210.3000030517578,-5.849999904632568 -209.3000030517578,-5.25 -193.39999389648438,0.949999988079071 C-177.39999389648438,7.25 -162.39999389648438,5.050000190734863 -158.10000610351562,5.349999904632568 C-153.89999389648438,5.75 -155.10000610351562,4.449999809265137 -155.5,2.049999952316284 C-156,-0.25 -158,-1.75 -157.5,-2.950000047683716 C-157.10000610351562,-4.050000190734863 -155.10000610351562,-4.25 -153.5,-2.3499999046325684 C-151.8000030517578,-0.44999998807907104 -143,7.550000190734863 -135.1999969482422,15.75 C-127.4000015258789,23.950000762939453 -119.5999984741211,26.450000762939453 -117.69999694824219,27.950000762939453 C-115.80000305175781,29.549999237060547 -117,31.950000762939453 -122.69999694824219,38.04999923706055 C-124.9000015258789,40.54999923706055 -127.0999984741211,44.650001525878906 -126.30000305175781,45.75 C-125.9000015258789,46.349998474121094 -122.80000305175781,44.25 -120.69999694824219,43.04999923706055 C-117.0999984741211,41.04999923706055 -112.30000305175781,38.849998474121094 -108.0999984741211,36.95000076293945 C-108.0999984741211,36.95000076293945 -101.30000305175781,33.75 -101.30000305175781,33.75 C-100.30000305175781,33.25 -100.19999694824219,31.75 -101.0999984741211,31.049999237060547 C-103.69999694824219,29.049999237060547 -106.80000305175781,26.75 -109.0999984741211,24.75 C-114.0999984741211,20.549999237060547 -118.5999984741211,14.949999809265137 -120.0999984741211,11.25 C-120.21900177001953,10.930000305175781 -120.27899932861328,10.590999603271484 -120.27899932861328,10.25 C-120.27899932861328,8.670000076293945 -118.9800033569336,7.370999813079834 -117.4000015258789,7.370999813079834 C-116.197998046875,7.370999813079834 -115.11699676513672,8.123000144958496 -114.69999694824219,9.25 C-113.80000305175781,11.649999618530273 -110.30000305175781,16.450000762939453 -105.5,20.450000762939453 C-102.5,23.049999237060547 -98,26.450000762939453 -95.19999694824219,28.450000762939453 C-94.5999984741211,28.950000762939453 -93.80000305175781,28.950000762939453 -93.19999694824219,28.450000762939453 C-89.5999984741211,25.450000762939453 -85.9000015258789,21.450000762939453 -83.5999984741211,16.149999618530273 C-79.3949966430664,6.98199987411499 -73.09100341796875,-1.069000005722046 -65.19999694824219,-7.349999904632568 C-59.400001525878906,-11.949999809265137 -56,-14.850000381469727 -55.900001525878906,-14.949999809265137 C-55.3849983215332,-15.392999649047852 -54.729000091552734,-15.63599967956543 -54.04999923706055,-15.63599967956543 C-52.49399948120117,-15.63599967956543 -51.2140007019043,-14.355999946594238 -51.2140007019043,-12.800000190734863 C-51.2140007019043,-11.973999977111816 -51.57400131225586,-11.189000129699707 -52.20000076293945,-10.649999618530273 C-52.20000076293945,-10.649999618530273 -61.70000076293945,-2.8499999046325684 -61.70000076293945,-2.8499999046325684 C-68.86000061035156,2.8410000801086426 -74.58200073242188,10.138999938964844 -78.4000015258789,18.450000762939453 C-82.2040023803711,26.790000915527344 -88.72799682617188,33.59700012207031 -96.9000015258789,37.75 C-98.9000015258789,38.95000076293945 -102.30000305175781,40.45000076293945 -105.69999694824219,42.04999923706055 C-109.9000015258789,43.95000076293945 -114.5,46.04999923706055 -117.80000305175781,47.95000076293945 C-120.8479995727539,49.694000244140625 -124.10800170898438,51.03900146484375 -127.5,51.95000076293945 C-127.78199768066406,52.249000549316406 -128.1219940185547,52.487998962402344 -128.5,52.650001525878906 C-131.10000610351562,53.650001525878906 -135.5,55.25 -137.89999389648438,56.849998474121094 C-141.6999969482422,59.349998474121094 -150.3000030517578,68.44999694824219 -153.60000610351562,70.8499984741211 C-156.8000030517578,73.44999694824219 -156.60000610351562,73.8499984741211 -153.8000030517578,75.55000305175781 C-151,77.25 -148.8000030517578,79.94999694824219 -147.60000610351562,85.1500015258789 C-146.3000030517578,90.3499984741211 -147.60000610351562,92.1500015258789 -151.39999389648438,95.25 C-155.1999969482422,98.44999694824219 -161.89999389648438,103.25 -167.1999969482422,103.8499984741211 C-172.60000610351562,104.44999694824219 -179.6999969482422,99.8499984741211 -181.10000610351562,98.8499984741211 C-182.5,97.6500015258789 -184.10000610351562,94.1500015258789 -184.89999389648438,94.8499984741211 C-185.6999969482422,95.55000305175781 -186.3000030517578,97.05000305175781 -185.10000610351562,99.55000305175781 C-181.8000030517578,104.3499984741211 -175.60000610351562,108.25 -170.89999389648438,110.55000305175781 C-168.39999389648438,111.55000305175781 -159.5,117.05000305175781 -146.10000610351562,115.3499984741211 C-136.60000610351562,114.1500015258789 -132.5,111.75 -127.69999694824219,108.94999694824219 C-125.19999694824219,107.55000305175781 -122.69999694824219,106.1500015258789 -119.4000015258789,104.75 C-112.80000305175781,102.05000305175781 -107.9000015258789,96.8499984741211 -103.69999694824219,92.3499984741211 C-103.69999694824219,92.3499984741211 -99.4000015258789,87.94999694824219 -99.4000015258789,87.94999694824219 C-95.69999694824219,84.44999694824219 -88.5999984741211,79.94999694824219 -81.9000015258789,76.3499984741211 C-81.9000015258789,76.3499984741211 -81.5999984741211,76.1500015258789 -81.5999984741211,76.1500015258789 C-78,74.25 -74.5999984741211,72.55000305175781 -71.9000015258789,71.55000305175781 C-71.9000015258789,71.55000305175781 -69.9000015258789,70.75 -69.9000015258789,70.75 C-61.400001525878906,67.3499984741211 -47,61.75 -30.899999618530273,65.6500015258789 C-17.100000381469727,69.05000305175781 -1.2000000476837158,71.05000305175781 7.5,71.6500015258789 C8.5,71.75 9.5,71.44999694824219 10.300000190734863,70.8499984741211 C10.300000190734863,70.8499984741211 26.799999237060547,57.25 26.799999237060547,57.25 C27.315000534057617,56.80699920654297 27.97100067138672,56.56399917602539 28.649999618530273,56.56399917602539 C30.20599937438965,56.56399917602539 31.486000061035156,57.84400177001953 31.486000061035156,59.400001525878906 C31.486000061035156,60.22600173950195 31.125999450683594,61.01100158691406 30.5,61.54999923706055 C30.5,61.54999923706055 18.700000762939453,71.25 18.700000762939453,71.25 C17.899999618530273,71.8499984741211 18.299999237060547,73.25 19.299999237060547,73.3499984741211 C25.600000381469727,74.6500015258789 29.799999237060547,75.55000305175781 43.900001525878906,73.75 C62.099998474121094,71.3499984741211 85.19999694824219,48.45000076293945 85.19999694824219,32.95000076293945 C85.19999694824219,31.413999557495117 86.46399688720703,30.149999618530273 88,30.149999618530273 C89.53600311279297,30.149999618530273 90.80000305175781,31.413999557495117 90.80000305175781,32.95000076293945 C90.80000305175781,51.45000076293945 65.80000305175781,76.55000305175781 44.70000076293945,79.3499984741211 C30.700000762939453,81.1500015258789 23,79.6500015258789 17.299999237060547,78.55000305175781 C14.800000190734863,78.05000305175781 12.300000190734863,77.6500015258789 9.800000190734863,77.44999694824219 C8.100000381469727,77.3499984741211 5.800000190734863,76.8499984741211 4.099999904632568,77.44999694824219 C4.099999904632568,77.44999694824219 3.9000000953674316,77.55000305175781 3.9000000953674316,77.55000305175781 C3.9000000953674316,77.55000305175781 4,77.75 4,77.75 C6,80.1500015258789 8.5,82.05000305175781 11,84.05000305175781 C11.300000190734863,84.25 13.899999618530273,85.75 13.899999618530273,86.05000305175781 C24.2189998626709,92.85800170898438 36.62200164794922,95.79900360107422 48.900001525878906,94.3499984741211 C50.400001525878906,94.25 51.900001525878906,95.3499984741211 51.900001525878906,96.94999694824219 C52.099998474121094,98.55000305175781 50.900001525878906,99.94999694824219 49.400001525878906,99.94999694824219 C49.400001525878906,99.94999694824219 43.400001525878906,100.25 43.400001525878906,100.25 C14.199999809265137,100.25 -1,81.25 -4.300000190734863,76.44999694824219 C-4.4670000076293945,76.2239990234375 -4.7210001945495605,76.0790023803711 -5,76.05000305175781 C-5,76.05000305175781 -10.5,75.25 -10.5,75.25 C-11.399999618530273,75.25 -12.100000381469727,75.94999694824219 -11.800000190734863,76.75 C-9.399999618530273,85.3499984741211 -1.5,102.05000305175781 24.399999618530273,107.44999694824219 C25.687999725341797,107.73100280761719 26.614999771118164,108.88099670410156 26.614999771118164,110.19999694824219 C26.614999771118164,111.74400329589844 25.3439998626709,113.01499938964844 23.799999237060547,113.01499938964844 C23.597999572753906,113.01499938964844 23.39699935913086,112.99299621582031 23.200000762939453,112.94999694824219 C-8.800000190734863,106.25 -16.399999618530273,82.94999694824219 -18,74.75 C-18.09600067138672,74.27899932861328 -18.518999099731445,73.94000244140625 -19,73.94999694824219 C-23.399999618530273,73.1500015258789 -28,72.1500015258789 -32.29999923706055,71.1500015258789 C-46.599998474121094,67.55000305175781 -59.900001525878906,72.8499984741211 -67.80000305175781,76.05000305175781 C-67.80000305175781,76.05000305175781 -69.80000305175781,76.8499984741211 -69.80000305175781,76.8499984741211 C-71.90799713134766,77.68800354003906 -73.97699737548828,78.62200164794922 -76,79.6500015258789 C-76.69999694824219,79.94999694824219 -77,80.75 -76.5999984741211,81.44999694824219 C-74.80000305175781,84.94999694824219 -71.4000015258789,90.44999694824219 -65.5999984741211,94.05000305175781 C-62.599998474121094,95.8499984741211 -58,97.55000305175781 -56.900001525878906,99.44999694824219 C-54.2760009765625,104.08499908447266 -51.0099983215332,108.3270034790039 -47.20000076293945,112.05000305175781 C-42.70000076293945,111.55000305175781 -36.29999923706055,110.8499984741211 -33.20000076293945,111.05000305175781 C-29.600000381469727,111.05000305175781 -26,113.05000305175781 -22.899999618530273,114.55000305175781 C-20.899999618530273,115.55000305175781 -19,116.55000305175781 -17.200000762939453,117.94999694824219 C-15.399999618530273,119.25 -13.399999618530273,120.44999694824219 -11.199999809265137,121.05000305175781 C-6.5,122.25 -1.2000000476837158,120.94999694824219 3.700000047683716,120.6500015258789 C8.600000381469727,120.25 13.5,120.25 18.5,120.25 C34.79999923706055,120.55000305175781 35.400001525878906,119.44999694824219 40.099998474121094,115.94999694824219 C44.79999923706055,112.55000305175781 48.5,108.25 55.79999923706055,107.3499984741211 C63,106.3499984741211 71.5,104.44999694824219 81.5999984741211,92.3499984741211 C91.69999694824219,80.05000305175781 93,79.3499984741211 112.5,66.44999694824219 C131.89999389648438,53.650001525878906 126.9000015258789,45.150001525878906 147.5,42.04999923706055 C159.10000610351562,39.54999923706055 173.6999969482422,40.849998474121094 206.10000610351562,52.54999923706055 C236.5,63.54999923706055 291.8999938964844,66.44999694824219 299.1000061035156,66.75z M87.30000305175781,12.550000190734863 C86.44000244140625,5.74399995803833 83.1760025024414,-0.5360000133514404 78.0999984741211,-5.150000095367432 C77.40599822998047,-5.690000057220459 77,-6.520999908447266 77,-7.400000095367432 C77,-8.96399974822998 78.28600311279297,-10.25 79.8499984741211,-10.25 C80.48400115966797,-10.25 81.0999984741211,-10.038999557495117 81.5999984741211,-9.649999618530273 C87.82499694824219,-4.129000186920166 91.81199645996094,3.489000082015991 92.80000305175781,11.75 C92.80000305175781,11.770000457763672 92.8010025024414,11.791000366210938 92.8010025024414,11.810999870300293 C92.8010025024414,13.347000122070312 91.53700256347656,14.611000061035156 90.0009994506836,14.611000061035156 C88.74299621582031,14.611000061035156 87.63200378417969,13.762999534606934 87.30000305175781,12.550000190734863z"></path></g><g opacity="1" transform="matrix(1,0,0,1,948.5,400.05)"><path fill="rgb(255,255,255)" fill-opacity="1" d=" M11.699999809265137,13.25 C11.699999809265137,3.950000047683716 5.099999904632568,-3.75 -0.699999988079071,-4.349999904632568 C-2.124000072479248,-4.502999782562256 -3.2160000801086426,-5.7179999351501465 -3.2160000801086426,-7.150000095367432 C-3.2160000801086426,-8.694999694824219 -1.9450000524520874,-9.965999603271484 -0.4000000059604645,-9.965999603271484 C-0.30000001192092896,-9.965999603271484 -0.20000000298023224,-9.961000442504883 -0.10000000149011612,-9.949999809265137 C2.4000000953674316,-9.649999618530273 4.800000190734863,-8.75 6.900000095367432,-7.25 C7.800000190734863,-6.75 8.899999618530273,-6.75 9.600000381469727,-7.349999904632568 C11.800000190734863,-9.149999618530273 14.5,-12.149999618530273 15.100000381469727,-15.949999809265137 C15.800000190734863,-19.350000381469727 14.800000190734863,-22.850000381469727 13.800000190734863,-26.149999618530273 C12.800000190734863,-29.75 11.699999809265137,-33.54999923706055 12.899999618530273,-37.04999923706055 C13.5,-38.650001525878906 14.399999618530273,-40.45000076293945 15.399999618530273,-42.45000076293945 C17.100000381469727,-45.95000076293945 19.100000381469727,-49.95000076293945 19.899999618530273,-54.150001525878906 C20.100000381469727,-55.150001525878906 19.100000381469727,-55.95000076293945 18.200000762939453,-55.54999923706055 C12.04800033569336,-52.87699890136719 5.4070000648498535,-51.51499938964844 -1.2999999523162842,-51.54999923706055 C-7,-51.54999923706055 -11.699999809265137,-52.650001525878906 -15.100000381469727,-53.95000076293945 C-15.800000190734863,-54.25 -16.600000381469727,-53.849998474121094 -16.799999237060547,-53.04999923706055 C-16.799999237060547,-53.04999923706055 -17.799999237060547,-47.54999923706055 -17.799999237060547,-47.54999923706055 C-19.5,-38.04999923706055 -20.100000381469727,-13.550000190734863 -14.699999809265137,7.449999809265137 C-9.199999809265137,28.450000762939453 -7.5,39.45000076293945 -2.700000047683716,47.650001525878906 C1.899999976158142,55.95000076293945 7.599999904632568,44.849998474121094 9.800000190734863,40.150001525878906 C9.800000190734863,40.150001525878906 10.199999809265137,39.150001525878906 10.199999809265137,39.150001525878906 C10.600000381469727,35.150001525878906 11.699999809265137,21.850000381469727 11.699999809265137,13.149999618530273 C11.699999809265137,13.149999618530273 11.699999809265137,13.25 11.699999809265137,13.25z"></path></g><g opacity="1" transform="matrix(1,0,0,1,931.546,315.55)"><path fill="rgb(255,255,255)" fill-opacity="1" d=" M-12.246000289916992,0.75 C-12.935999870300293,1.190000057220459 -13.354000091552734,1.9539999961853027 -13.354000091552734,2.7730000019073486 C-13.354000091552734,3.308000087738037 -13.175000190734863,3.828000068664551 -12.845999717712402,4.25 C-11.345999717712402,6.25 -8.845999717712402,9.050000190734863 -6.446000099182129,9.649999618530273 C-2.8459999561309814,10.649999618530273 -0.04600000008940697,10.550000190734863 5.1539998054504395,6.650000095367432 C10.253999710083008,2.8499999046325684 13.354000091552734,-1.0499999523162842 11.154000282287598,-4.849999904632568 C9.454000473022461,-7.650000095367432 5.6539998054504395,-9.449999809265137 3.4539999961853027,-10.350000381469727 C2.6540000438690186,-10.649999618530273 1.6540000438690186,-10.449999809265137 1.0540000200271606,-9.850000381469727 C-3.0959999561309814,-5.97599983215332 -7.543000221252441,-2.431999921798706 -12.246000289916992,0.75z"></path></g></g><g opacity="1" transform="matrix(1,0,0,1,0,0)" style="transform: translateX(0px);"><g opacity="1" transform="matrix(1,0,0,1,616.4,243.45)"><path fill="rgb(255,255,255)" fill-opacity="1" d=" M39.900001525878906,67.3499984741211 C47.900001525878906,69.8499984741211 50.900001525878906,68.94999694824219 51.20000076293945,68.44999694824219 C51.29999923706055,68.25 51.400001525878906,66.6500015258789 49.400001525878906,63.150001525878906 C42.939998626708984,51.79899978637695 39.04800033569336,39.167999267578125 38,26.149999618530273 C38.29999923706055,18.75 36.29999923706055,9.350000381469727 32.20000076293945,-1.850000023841858 C28.7549991607666,-13.631999969482422 27.16900062561035,-25.878999710083008 27.5,-38.150001525878906 C27.46299934387207,-38.90599822998047 27.141000747680664,-39.62099838256836 26.600000381469727,-40.150001525878906 C22.600000381469727,-44.25 19.399999618530273,-47.849998474121094 18.299999237060547,-49.650001525878906 C18.299999237060547,-49.650001525878906 17.600000381469727,-50.849998474121094 17.600000381469727,-50.849998474121094 C15.300000190734863,-55.04999923706055 12.300000190734863,-60.75 3.0999999046325684,-60.45000076293945 C3.0999999046325684,-60.45000076293945 -5.099999904632568,-60.150001525878906 -5.099999904632568,-60.150001525878906 C-15.899999618530273,-59.650001525878906 -27.200000762939453,-59.150001525878906 -35.79999923706055,-62.650001525878906 C-39.099998474121094,-63.95000076293945 -41.79999923706055,-65.6500015258789 -43.900001525878906,-66.8499984741211 C-48.900001525878906,-69.8499984741211 -49,-69.8499984741211 -50.900001525878906,-67.8499984741211 C-50.900001525878906,-67.8499984741211 -51.400001525878906,-67.25 -51.400001525878906,-67.25 C-50.79999923706055,-64.1500015258789 -48.5,-54.75 -39.20000076293945,-48.25 C-34.625,-45.255001068115234 -29.591999053955078,-43.025001525878906 -24.299999237060547,-41.650001525878906 C-18,-39.650001525878906 -12,-37.75 -9.899999618530273,-31.049999237060547 C-8.899999618530273,-28.350000381469727 -8.399999618530273,-25.950000762939453 -7.900000095367432,-23.549999237060547 C-6.5,-18.25 -5.5,-14.050000190734863 -2.299999952316284,-10.649999618530273 C4.133999824523926,-3.680999994277954 7.706999778747559,5.465000152587891 7.699999809265137,14.949999809265137 C8.300000190734863,24.149999618530273 10.699999809265137,29.75 16.700000762939453,36.45000076293945 C21.799999237060547,42.25 22.600000381469727,47.849998474121094 22.600000381469727,50.75 C22.600000381469727,51.25 22.600000381469727,51.75 22.899999618530273,52.04999923706055 C24.5,55.349998474121094 29.600000381469727,64.05000305175781 39.900001525878906,67.3499984741211z"></path><path stroke-linecap="butt" stroke-linejoin="round" fill-opacity="0" stroke-dasharray="" stroke-dashoffset="0" stroke="rgb(0,0,0)" stroke-opacity="1" stroke-width="16.168" d=" M39.900001525878906,67.3499984741211 C47.900001525878906,69.8499984741211 50.900001525878906,68.94999694824219 51.20000076293945,68.44999694824219 C51.29999923706055,68.25 51.400001525878906,66.6500015258789 49.400001525878906,63.150001525878906 C42.939998626708984,51.79899978637695 39.04800033569336,39.167999267578125 38,26.149999618530273 C38.29999923706055,18.75 36.29999923706055,9.350000381469727 32.20000076293945,-1.850000023841858 C28.7549991607666,-13.631999969482422 27.16900062561035,-25.878999710083008 27.5,-38.150001525878906 C27.46299934387207,-38.90599822998047 27.141000747680664,-39.62099838256836 26.600000381469727,-40.150001525878906 C22.600000381469727,-44.25 19.399999618530273,-47.849998474121094 18.299999237060547,-49.650001525878906 C18.299999237060547,-49.650001525878906 17.600000381469727,-50.849998474121094 17.600000381469727,-50.849998474121094 C15.300000190734863,-55.04999923706055 12.300000190734863,-60.75 3.0999999046325684,-60.45000076293945 C3.0999999046325684,-60.45000076293945 -5.099999904632568,-60.150001525878906 -5.099999904632568,-60.150001525878906 C-15.899999618530273,-59.650001525878906 -27.200000762939453,-59.150001525878906 -35.79999923706055,-62.650001525878906 C-39.099998474121094,-63.95000076293945 -41.79999923706055,-65.6500015258789 -43.900001525878906,-66.8499984741211 C-48.900001525878906,-69.8499984741211 -49,-69.8499984741211 -50.900001525878906,-67.8499984741211 C-50.900001525878906,-67.8499984741211 -51.400001525878906,-67.25 -51.400001525878906,-67.25 C-50.79999923706055,-64.1500015258789 -48.5,-54.75 -39.20000076293945,-48.25 C-34.625,-45.255001068115234 -29.591999053955078,-43.025001525878906 -24.299999237060547,-41.650001525878906 C-18,-39.650001525878906 -12,-37.75 -9.899999618530273,-31.049999237060547 C-8.899999618530273,-28.350000381469727 -8.399999618530273,-25.950000762939453 -7.900000095367432,-23.549999237060547 C-6.5,-18.25 -5.5,-14.050000190734863 -2.299999952316284,-10.649999618530273 C4.133999824523926,-3.680999994277954 7.706999778747559,5.465000152587891 7.699999809265137,14.949999809265137 C8.300000190734863,24.149999618530273 10.699999809265137,29.75 16.700000762939453,36.45000076293945 C21.799999237060547,42.25 22.600000381469727,47.849998474121094 22.600000381469727,50.75 C22.600000381469727,51.25 22.600000381469727,51.75 22.899999618530273,52.04999923706055 C24.5,55.349998474121094 29.600000381469727,64.05000305175781 39.900001525878906,67.3499984741211z"></path><path fill="rgb(255,255,255)" fill-opacity="1" d=" M39.900001525878906,67.3499984741211 C47.900001525878906,69.8499984741211 50.900001525878906,68.94999694824219 51.20000076293945,68.44999694824219 C51.29999923706055,68.25 51.400001525878906,66.6500015258789 49.400001525878906,63.150001525878906 C42.939998626708984,51.79899978637695 39.04800033569336,39.167999267578125 38,26.149999618530273 C38.29999923706055,18.75 36.29999923706055,9.350000381469727 32.20000076293945,-1.850000023841858 C28.7549991607666,-13.631999969482422 27.16900062561035,-25.878999710083008 27.5,-38.150001525878906 C27.46299934387207,-38.90599822998047 27.141000747680664,-39.62099838256836 26.600000381469727,-40.150001525878906 C22.600000381469727,-44.25 19.399999618530273,-47.849998474121094 18.299999237060547,-49.650001525878906 C18.299999237060547,-49.650001525878906 17.600000381469727,-50.849998474121094 17.600000381469727,-50.849998474121094 C15.300000190734863,-55.04999923706055 12.300000190734863,-60.75 3.0999999046325684,-60.45000076293945 C3.0999999046325684,-60.45000076293945 -5.099999904632568,-60.150001525878906 -5.099999904632568,-60.150001525878906 C-15.899999618530273,-59.650001525878906 -27.200000762939453,-59.150001525878906 -35.79999923706055,-62.650001525878906 C-39.099998474121094,-63.95000076293945 -41.79999923706055,-65.6500015258789 -43.900001525878906,-66.8499984741211 C-48.900001525878906,-69.8499984741211 -49,-69.8499984741211 -50.900001525878906,-67.8499984741211 C-50.900001525878906,-67.8499984741211 -51.400001525878906,-67.25 -51.400001525878906,-67.25 C-50.79999923706055,-64.1500015258789 -48.5,-54.75 -39.20000076293945,-48.25 C-34.625,-45.255001068115234 -29.591999053955078,-43.025001525878906 -24.299999237060547,-41.650001525878906 C-18,-39.650001525878906 -12,-37.75 -9.899999618530273,-31.049999237060547 C-8.899999618530273,-28.350000381469727 -8.399999618530273,-25.950000762939453 -7.900000095367432,-23.549999237060547 C-6.5,-18.25 -5.5,-14.050000190734863 -2.299999952316284,-10.649999618530273 C4.133999824523926,-3.680999994277954 7.706999778747559,5.465000152587891 7.699999809265137,14.949999809265137 C8.300000190734863,24.149999618530273 10.699999809265137,29.75 16.700000762939453,36.45000076293945 C21.799999237060547,42.25 22.600000381469727,47.849998474121094 22.600000381469727,50.75 C22.600000381469727,51.25 22.600000381469727,51.75 22.899999618530273,52.04999923706055 C24.5,55.349998474121094 29.600000381469727,64.05000305175781 39.900001525878906,67.3499984741211z"></path></g><g opacity="1" transform="matrix(1,0,0,1,626.599,220.95)"><path fill="rgb(255,255,255)" fill-opacity="1" d=" M-26.799999237060547,-92.44999694824219 C-39.79999923706055,-96.75 -72.29900360107422,-22.450000762939453 -69.5989990234375,-22.75 C-66.89900207519531,-23.049999237060547 -65.4000015258789,-18.649999618530273 -59.70000076293945,-6.849999904632568 C-54.099998474121094,4.849999904632568 -42.79999923706055,10.050000190734863 -35.70000076293945,12.850000381469727 C-28.399999618530273,15.649999618530273 -25.599000930786133,18.850000381469727 -24.698999404907227,24.850000381469727 C-23.698999404907227,31.049999237060547 -23.399999618530273,41.25 -17,48.75 C-10.699999809265137,56.25 -12.600000381469727,55.349998474121094 -11.399999618530273,73.8499984741211 C-10.199999809265137,92.44999694824219 -0.4000000059604645,95.75 -0.4000000059604645,95.75 C-0.4000000059604645,95.75 -0.5989999771118164,96.75 -0.5989999771118164,96.75 C1.2009999752044678,95.55000305175781 1.399999976158142,93.1500015258789 1.100000023841858,89.3499984741211 C1.100000023841858,89.3499984741211 1.100000023841858,88.6500015258789 1.100000023841858,88.6500015258789 C1.4359999895095825,83.64199829101562 2.6549999713897705,78.73300170898438 4.699999809265137,74.1500015258789 C4.699999809265137,74.1500015258789 4.901000022888184,72.94999694824219 4.901000022888184,72.94999694824219 C4.901000022888184,71.25 4.301000118255615,67.75 0.9010000228881836,63.95000076293945 C-5.836999893188477,56.94200134277344 -9.72599983215332,47.667999267578125 -10,37.95000076293945 C-10.600000381469727,28.25 -12.99899959564209,22.149999618530273 -17.89900016784668,16.950000762939453 C-22.599000930786133,12.149999618530273 -23.899999618530273,6.550000190734863 -25.299999237060547,0.75 C-25.899999618530273,-1.5499999523162842 -26.39900016784668,-3.8499999046325684 -27.198999404907227,-6.25 C-28.198999404907227,-9.149999618530273 -31,-10.149999618530273 -36.79999923706055,-11.949999809265137 C-42.85100173950195,-13.567000389099121 -48.59400177001953,-16.167999267578125 -53.79999923706055,-19.649999618530273 C-59.40999984741211,-23.600000381469727 -63.808998107910156,-29.038000106811523 -66.5,-35.349998474121094 C-67.19999694824219,-37.150001525878906 -69.39900207519531,-37.650001525878906 -70.89900207519531,-36.650001525878906 C-75.68800354003906,-33.597999572753906 -81.01699829101562,-31.493999481201172 -86.5989990234375,-30.450000762939453 C-86.98600006103516,-30.320999145507812 -87.39199829101562,-30.2549991607666 -87.80000305175781,-30.2549991607666 C-89.88500213623047,-30.2549991607666 -91.5999984741211,-31.97100067138672 -91.5999984741211,-34.05500030517578 C-91.5999984741211,-36.064998626708984 -90.00700378417969,-37.744998931884766 -88,-37.849998474121094 C-79.60800170898438,-39.47600173950195 -72.0199966430664,-43.92300033569336 -66.5,-50.45000076293945 C-60.5,-57.04999923706055 -54.69900131225586,-53.650001525878906 -50.19900131225586,-50.849998474121094 C-48.19900131225586,-49.650001525878906 -45.900001525878906,-48.25 -43.20000076293945,-47.150001525878906 C-36.20000076293945,-44.25 -25.698999404907227,-44.75 -15.598999977111816,-45.150001525878906 C-15.598999977111816,-45.150001525878906 -7.199999809265137,-45.54999923706055 -7.199999809265137,-45.54999923706055 C6.199999809265137,-45.75 11.5,-36.54999923706055 14,-32.04999923706055 C14,-32.04999923706055 14.600000381469727,-31.049999237060547 14.600000381469727,-31.049999237060547 C16.5,-27.75 33.5,-11.25 39.599998474121094,-5.75 C40.599998474121094,-4.75 41.79999923706055,-3.75 43.099998474121094,-2.75 C48,1.4500000476837158 53.099998474121094,5.75 54.5,10.25 C55.20000076293945,12.649999618530273 63.5,26.25 81.5,28.75 C88.19999694824219,29.75 90.69999694824219,28.549999237060547 91.0999984741211,27.75 C91.5999984741211,26.75 90.8010025024414,24.75 90.4010009765625,24.149999618530273 C83.75499725341797,17.22100067138672 78.03900146484375,9.456000328063965 73.4000015258789,1.0499999523162842 C71.5999984741211,-2.450000047683716 70.70099639892578,-5.449999809265137 69.8010025024414,-8.050000190734863 C68.72599792480469,-12.104000091552734 66.92900085449219,-15.930999755859375 64.5,-19.350000381469727 C61.900001525878906,-22.950000762939453 58.29999923706055,-26.549999237060547 54.20000076293945,-30.75 C49.29999923706055,-35.75 43.70100021362305,-41.45000076293945 38.30099868774414,-48.54999923706055 C35.60100173950195,-52.04999923706055 32.70100021362305,-55.349998474121094 29.701000213623047,-58.650001525878906 C24.000999450683594,-65.05000305175781 19.5,-71.8499984741211 11.899999618530273,-75.94999694824219 C-0.5289999842643738,-82.56700134277344 -13.51099967956543,-88.08799743652344 -26.89900016784668,-92.44999694824219 C-26.89900016784668,-92.44999694824219 -26.799999237060547,-92.44999694824219 -26.799999237060547,-92.44999694824219z"></path><path stroke-linecap="butt" stroke-linejoin="round" fill-opacity="0" stroke-dasharray="" stroke-dashoffset="0" stroke="rgb(0,0,0)" stroke-opacity="1" stroke-width="15.04" d=" M-26.799999237060547,-92.44999694824219 C-39.79999923706055,-96.75 -72.29900360107422,-22.450000762939453 -69.5989990234375,-22.75 C-66.89900207519531,-23.049999237060547 -65.4000015258789,-18.649999618530273 -59.70000076293945,-6.849999904632568 C-54.099998474121094,4.849999904632568 -42.79999923706055,10.050000190734863 -35.70000076293945,12.850000381469727 C-28.399999618530273,15.649999618530273 -25.599000930786133,18.850000381469727 -24.698999404907227,24.850000381469727 C-23.698999404907227,31.049999237060547 -23.399999618530273,41.25 -17,48.75 C-10.699999809265137,56.25 -12.600000381469727,55.349998474121094 -11.399999618530273,73.8499984741211 C-10.199999809265137,92.44999694824219 -0.4000000059604645,95.75 -0.4000000059604645,95.75 C-0.4000000059604645,95.75 -0.5989999771118164,96.75 -0.5989999771118164,96.75 C1.2009999752044678,95.55000305175781 1.399999976158142,93.1500015258789 1.100000023841858,89.3499984741211 C1.100000023841858,89.3499984741211 1.100000023841858,88.6500015258789 1.100000023841858,88.6500015258789 C1.4359999895095825,83.64199829101562 2.6549999713897705,78.73300170898438 4.699999809265137,74.1500015258789 C4.699999809265137,74.1500015258789 4.901000022888184,72.94999694824219 4.901000022888184,72.94999694824219 C4.901000022888184,71.25 4.301000118255615,67.75 0.9010000228881836,63.95000076293945 C-5.836999893188477,56.94200134277344 -9.72599983215332,47.667999267578125 -10,37.95000076293945 C-10.600000381469727,28.25 -12.99899959564209,22.149999618530273 -17.89900016784668,16.950000762939453 C-22.599000930786133,12.149999618530273 -23.899999618530273,6.550000190734863 -25.299999237060547,0.75 C-25.899999618530273,-1.5499999523162842 -26.39900016784668,-3.8499999046325684 -27.198999404907227,-6.25 C-28.198999404907227,-9.149999618530273 -31,-10.149999618530273 -36.79999923706055,-11.949999809265137 C-42.85100173950195,-13.567000389099121 -48.59400177001953,-16.167999267578125 -53.79999923706055,-19.649999618530273 C-59.40999984741211,-23.600000381469727 -63.808998107910156,-29.038000106811523 -66.5,-35.349998474121094 C-67.19999694824219,-37.150001525878906 -69.39900207519531,-37.650001525878906 -70.89900207519531,-36.650001525878906 C-75.68800354003906,-33.597999572753906 -81.01699829101562,-31.493999481201172 -86.5989990234375,-30.450000762939453 C-86.98600006103516,-30.320999145507812 -87.39199829101562,-30.2549991607666 -87.80000305175781,-30.2549991607666 C-89.88500213623047,-30.2549991607666 -91.5999984741211,-31.97100067138672 -91.5999984741211,-34.05500030517578 C-91.5999984741211,-36.064998626708984 -90.00700378417969,-37.744998931884766 -88,-37.849998474121094 C-79.60800170898438,-39.47600173950195 -72.0199966430664,-43.92300033569336 -66.5,-50.45000076293945 C-60.5,-57.04999923706055 -54.69900131225586,-53.650001525878906 -50.19900131225586,-50.849998474121094 C-48.19900131225586,-49.650001525878906 -45.900001525878906,-48.25 -43.20000076293945,-47.150001525878906 C-36.20000076293945,-44.25 -25.698999404907227,-44.75 -15.598999977111816,-45.150001525878906 C-15.598999977111816,-45.150001525878906 -7.199999809265137,-45.54999923706055 -7.199999809265137,-45.54999923706055 C6.199999809265137,-45.75 11.5,-36.54999923706055 14,-32.04999923706055 C14,-32.04999923706055 14.600000381469727,-31.049999237060547 14.600000381469727,-31.049999237060547 C16.5,-27.75 33.5,-11.25 39.599998474121094,-5.75 C40.599998474121094,-4.75 41.79999923706055,-3.75 43.099998474121094,-2.75 C48,1.4500000476837158 53.099998474121094,5.75 54.5,10.25 C55.20000076293945,12.649999618530273 63.5,26.25 81.5,28.75 C88.19999694824219,29.75 90.69999694824219,28.549999237060547 91.0999984741211,27.75 C91.5999984741211,26.75 90.8010025024414,24.75 90.4010009765625,24.149999618530273 C83.75499725341797,17.22100067138672 78.03900146484375,9.456000328063965 73.4000015258789,1.0499999523162842 C71.5999984741211,-2.450000047683716 70.70099639892578,-5.449999809265137 69.8010025024414,-8.050000190734863 C68.72599792480469,-12.104000091552734 66.92900085449219,-15.930999755859375 64.5,-19.350000381469727 C61.900001525878906,-22.950000762939453 58.29999923706055,-26.549999237060547 54.20000076293945,-30.75 C49.29999923706055,-35.75 43.70100021362305,-41.45000076293945 38.30099868774414,-48.54999923706055 C35.60100173950195,-52.04999923706055 32.70100021362305,-55.349998474121094 29.701000213623047,-58.650001525878906 C24.000999450683594,-65.05000305175781 19.5,-71.8499984741211 11.899999618530273,-75.94999694824219 C-0.5289999842643738,-82.56700134277344 -13.51099967956543,-88.08799743652344 -26.89900016784668,-92.44999694824219 C-26.89900016784668,-92.44999694824219 -26.799999237060547,-92.44999694824219 -26.799999237060547,-92.44999694824219z"></path></g><g opacity="1" transform="matrix(1,0,0,1,395.15,183.4)"><path fill="rgb(255,255,255)" fill-opacity="1" d=" M-301.1499938964844,140.3000030517578 C-301.1499938964844,140.3000030517578 -285.1499938964844,132.5 -285.1499938964844,132.5 C-273.1499938964844,126.5 -237.5500030517578,112.80000305175781 -224.0500030517578,98.69999694824219 C-210.5500030517578,84.5999984741211 -199.25,78 -178.9499969482422,64.19999694824219 C-158.5500030517578,50.400001525878906 -156.64999389648438,47.20000076293945 -139.4499969482422,29.399999618530273 C-122.1500015258789,11.600000381469727 -106.44999694824219,2.200000047683716 -98.05000305175781,0.4000000059604645 C-89.75,-1.2999999523162842 -81.75,-2.0999999046325684 -81.75,-4.900000095367432 C-81.75,-7.699999809265137 -86.94999694824219,-17.700000762939453 -91.3499984741211,-25.299999237060547 C-95.75,-32.79999923706055 -99.05000305175781,-36.70000076293945 -96.55000305175781,-36.099998474121094 C-93.94999694824219,-35.400001525878906 -82.44999694824219,-27 -79.8499984741211,-18.299999237060547 C-77.25,-9.600000381469727 -71.55000305175781,4 -66.55000305175781,10.300000190734863 C-58.10499954223633,22.722000122070312 -46.01499938964844,32.22700119018555 -31.950000762939453,37.5 C-23.649999618530273,40.5 -7.349999904632568,41.5 -8.75,39.29999923706055 C-10.149999618530273,37.099998474121094 -16.049999237060547,33.099998474121094 -20.149999618530273,28.600000381469727 C-24.149999618530273,24.100000381469727 -20.850000381469727,23.100000381469727 -18.850000381469727,25.200000762939453 C-16.850000381469727,27.299999237060547 -8.449999809265137,35.599998474121094 -1.850000023841858,37.5 C4.650000095367432,39.400001525878906 11.350000381469727,40 8.550000190734863,36.5 C5.75,32.900001525878906 -0.25,25 -0.15000000596046448,19.200000762939453 C-0.05000000074505806,13.399999618530273 3.6500000953674316,25.5 12.850000381469727,33.400001525878906 C23.389999389648438,42.20899963378906 36.22800064086914,47.83000183105469 49.849998474121094,49.599998474121094 C65.6500015258789,52 62.349998474121094,52.400001525878906 74.3499984741211,60.900001525878906 C86.3499984741211,69.4000015258789 98.3499984741211,70.5 110.05000305175781,81.4000015258789 C121.8499984741211,92.19999694824219 138.0500030517578,107.80000305175781 141.0500030517578,111.5999984741211 C144.0500030517578,115.30000305175781 145.35000610351562,115.30000305175781 143.75,112.19999694824219 C142.14999389648438,109.19999694824219 138.35000610351562,100.5 140.35000610351562,95.4000015258789 C142.35000610351562,90.30000305175781 149.35000610351562,89.4000015258789 153.5500030517578,91 C157.75,92.5999984741211 162.9499969482422,99 168.5500030517578,102.5999984741211 C174.25,106.19999694824219 172.5500030517578,111.5999984741211 171.35000610351562,114.19999694824219 C170.35000610351562,116.80000305175781 163.75,121.4000015258789 160.35000610351562,123.4000015258789 C157.14999389648438,125.4000015258789 159.4499969482422,125.4000015258789 162.75,125.4000015258789 C166.0500030517578,125.4000015258789 172.9499969482422,123.9000015258789 176.0500030517578,115.4000015258789 C179.25,107 173.4499969482422,99.0999984741211 170.35000610351562,93 C165.64999389648438,84 162.25,74.0999984741211 156.14999389648438,65.80000305175781 C149.2310028076172,56.73500061035156 139.7570037841797,49.94200134277344 128.9499969482422,46.29999923706055 C108.1500015258789,38.70000076293945 92.1500015258789,32.29999923706055 87.1500015258789,23.100000381469727 C82.1500015258789,14.100000381469727 75.94999694824219,4.099999904632568 72.75,-3 C69.44999694824219,-10 63.849998474121094,-15.300000190734863 62.25,-16.700000762939453 C60.54999923706055,-18.100000381469727 60.150001525878906,-19.200000762939453 61.25,-19.899999618530273 C62.25,-20.600000381469727 62.650001525878906,-21.200000762939453 65.25,-18.799999237060547 C69.26000213623047,-14.87600040435791 72.93900299072266,-10.628999710083008 76.25,-6.099999904632568 C78.05000305175781,-3.0999999046325684 80.55000305175781,-3.4000000953674316 82.94999694824219,-4.5 C85.3499984741211,-5.599999904632568 94.94999694824219,-10.199999809265137 100.75,-10.699999809265137 C106.75,-11.199999809265137 112.25,-13.800000190734863 116.75,-20.700000762939453 C119.95800018310547,-25.040000915527344 122.51799774169922,-29.823999404907227 124.3499984741211,-34.900001525878906 C125.44999694824219,-38.5 129.25,-38.900001525878906 128.14999389648438,-32.5 C127.1500015258789,-26.200000762939453 124.6500015258789,-16.600000381469727 115.75,-10.5 C106.75,-4.5 103.94999694824219,-6.199999809265137 107.75,-2.700000047683716 C111.44999694824219,0.8999999761581421 122.55000305175781,5.099999904632568 127.1500015258789,8.300000190734863 C131.64999389648438,11.399999618530273 135.5500030517578,15.800000190734863 133.75,25.200000762939453 C132.0500030517578,34.599998474121094 129.5500030517578,40 138.85000610351562,44.599998474121094 C144.4499969482422,47.400001525878906 150.25,51.599998474121094 154.4499969482422,55.099998474121094 C154.9739990234375,55.500999450683594 155.61500549316406,55.71799850463867 156.2740020751953,55.71799850463867 C157.77699279785156,55.71799850463867 159.0590057373047,54.59000015258789 159.25,53.099998474121094 C160.35000610351562,46.29999923706055 162.25,40.099998474121094 163.25,35.70000076293945 C164.9499969482422,28 164.35000610351562,28.899999618530273 161.35000610351562,21.600000381469727 C158.35000610351562,14.199999809265137 159.14999389648438,15.199999809265137 161.85000610351562,14.800000190734863 C164.5500030517578,14.5 166.0500030517578,18.899999618530273 171.75,30.700000762939453 C177.35000610351562,42.400001525878906 188.64999389648438,47.599998474121094 195.75,50.400001525878906 C203.0500030517578,53.20000076293945 205.85000610351562,56.400001525878906 206.75,62.400001525878906 C207.75,68.5999984741211 208.0500030517578,78.80000305175781 214.4499969482422,86.30000305175781 C220.75,93.80000305175781 218.85000610351562,92.9000015258789 220.0500030517578,111.4000015258789 C221.25,130 231.0500030517578,133.3000030517578 231.0500030517578,133.3000030517578 C231.0500030517578,133.3000030517578 230.85000610351562,134.3000030517578 230.85000610351562,134.3000030517578 C232.64999389648438,133.10000610351562 232.85000610351562,130.6999969482422 232.5500030517578,126.9000015258789 C232.5500030517578,126.9000015258789 232.5500030517578,126.19999694824219 232.5500030517578,126.19999694824219 C232.88600158691406,121.19200134277344 234.10499572753906,116.28299713134766 236.14999389648438,111.69999694824219 C236.14999389648438,111.69999694824219 236.35000610351562,110.5 236.35000610351562,110.5 C236.35000610351562,108.80000305175781 235.75,105.30000305175781 232.35000610351562,101.5 C225.61199951171875,94.49199676513672 221.7239990234375,85.21800231933594 221.4499969482422,75.5 C220.85000610351562,65.80000305175781 218.4499969482422,59.70000076293945 213.5500030517578,54.5 C208.85000610351562,49.70000076293945 207.5500030517578,44.099998474121094 206.14999389648438,38.29999923706055 C205.5500030517578,36 205.0500030517578,33.70000076293945 204.25,31.299999237060547 C203.25,28.399999618530273 200.4499969482422,27.399999618530273 194.64999389648438,25.600000381469727 C188.5989990234375,23.982999801635742 182.8560028076172,21.381999969482422 177.64999389648438,17.899999618530273 C172.0399932861328,13.949999809265137 167.64100646972656,8.51200008392334 164.9499969482422,2.200000047683716 C164.25,0.4000000059604645 162.0500030517578,-0.10000000149011612 160.5500030517578,0.8999999761581421 C155.76100158691406,3.9519999027252197 150.4320068359375,6.056000232696533 144.85000610351562,7.099999904632568 C144.46299743652344,7.229000091552734 144.0570068359375,7.295000076293945 143.6490020751953,7.295000076293945 C141.56399536132812,7.295000076293945 139.8489990234375,5.578999996185303 139.8489990234375,3.494999885559082 C139.8489990234375,1.4850000143051147 141.4429931640625,-0.19499999284744263 143.4499969482422,-0.30000001192092896 C151.8419952392578,-1.9259999990463257 159.42999267578125,-6.373000144958496 164.9499969482422,-12.899999618530273 C170.9499969482422,-19.5 176.75,-16.100000381469727 181.25,-13.300000190734863 C183.25,-12.100000381469727 185.5500030517578,-10.699999809265137 188.25,-9.600000381469727 C195.25,-6.699999809265137 205.75,-7.199999809265137 215.85000610351562,-7.599999904632568 C215.85000610351562,-7.599999904632568 224.25,-8 224.25,-8 C237.64999389648438,-8.199999809265137 242.9499969482422,1 245.4499969482422,5.5 C245.4499969482422,5.5 246.0500030517578,6.5 246.0500030517578,6.5 C247.9499969482422,9.800000190734863 264.95001220703125,26.299999237060547 271.04998779296875,31.799999237060547 C272.04998779296875,32.79999923706055 273.25,33.79999923706055 274.54998779296875,34.79999923706055 C279.45001220703125,39 284.54998779296875,43.29999923706055 285.95001220703125,47.79999923706055 C286.6499938964844,50.20000076293945 294.95001220703125,63.79999923706055 312.95001220703125,66.30000305175781 C319.6499938964844,67.30000305175781 322.1499938964844,66.0999984741211 322.54998779296875,65.30000305175781 C323.04998779296875,64.30000305175781 322.25,62.29999923706055 321.8500061035156,61.70000076293945 C315.2040100097656,54.770999908447266 309.489013671875,47.00600051879883 304.8500061035156,38.599998474121094 C303.04998779296875,35.099998474121094 302.1499938964844,32.099998474121094 301.25,29.5 C300.17498779296875,25.445999145507812 298.3789978027344,21.618999481201172 295.95001220703125,18.200000762939453 C293.3500061035156,14.600000381469727 289.75,11 285.6499938964844,6.800000190734863 C280.75,1.7999999523162842 275.1499938964844,-3.9000000953674316 269.75,-11 C267.04998779296875,-14.5 264.1499938964844,-17.799999237060547 261.1499938964844,-21.100000381469727 C255.4499969482422,-27.5 250.9499969482422,-34.29999923706055 243.35000610351562,-38.400001525878906 C230.92100524902344,-45.016998291015625 217.93800354003906,-50.53799819946289 204.5500030517578,-54.900001525878906 C189.75,-59.79999923706055 182.64999389648438,-64.5 166.5500030517578,-77 C150.0500030517578,-89.69999694824219 138.75,-100.30000305175781 120.55000305175781,-105.5 C102.55000305175781,-110.5999984741211 75.94999694824219,-112.80000305175781 45.45000076293945,-112.0999984741211 C14.850000381469727,-111.4000015258789 7.650000095367432,-114.4000015258789 -17.149999618530273,-121.4000015258789 C-41.849998474121094,-128.39999389648438 -53.849998474121094,-128.60000610351562 -71.94999694824219,-132.1999969482422 C-89.94999694824219,-135.6999969482422 -103.44999694824219,-140.60000610351562 -128.5500030517578,-137.8000030517578 C-153.64999389648438,-135 -170.35000610351562,-119.5 -194.35000610351562,-107.30000305175781 C-213.5500030517578,-97.5 -248.35000610351562,-86.19999694824219 -261.54998779296875,-82.0999984741211 C-316.04998779296875,-5.199999809265137 -323.04998779296875,68.5999984741211 -302.04998779296875,140.60000610351562 C-301.7359924316406,140.54800415039062 -301.4320068359375,140.44700622558594 -301.1499938964844,140.3000030517578z M100.75,-26.399999618530273 C101.1500015258789,-25.399999618530273 100.75,-24.299999237060547 99.75,-23.899999618530273 C99.25,-23.600000381469727 98.3499984741211,-22.700000762939453 97.44999694824219,-21.899999618530273 C95.3740005493164,-19.648000717163086 92.80699920654297,-17.902999877929688 89.94999694824219,-16.799999237060547 C86.25,-15.600000381469727 84.6500015258789,-13.300000190734863 84.6500015258789,-13.300000190734863 C84.09700012207031,-12.428000450134277 82.92900085449219,-12.159000396728516 82.05000305175781,-12.699999809265137 C81.1780014038086,-13.253000259399414 80.90899658203125,-14.420999526977539 81.44999694824219,-15.300000190734863 C83.30400085449219,-17.729000091552734 85.90399932861328,-19.486000061035156 88.8499984741211,-20.299999237060547 C91.1500015258789,-21.100000381469727 93.1500015258789,-23 94.8499984741211,-24.600000381469727 C96.05000305175781,-25.799999237060547 97.1500015258789,-26.799999237060547 98.25,-27.299999237060547 C99.25,-27.700000762939453 100.25,-27.299999237060547 100.75,-26.299999237060547 C100.75,-26.299999237060547 100.75,-26.399999618530273 100.75,-26.399999618530273z M106.75,-91 C106.1500015258789,-91.5 103.75,-92.9000015258789 97.55000305175781,-92.80000305175781 C87.75,-92.5999984741211 78.05000305175781,-92.80000305175781 73.55000305175781,-95.80000305175781 C70.48400115966797,-97.64099884033203 67.08599853515625,-98.86399841308594 63.54999923706055,-99.4000015258789 C62.54999923706055,-99.5 61.849998474121094,-100.4000015258789 62.04999923706055,-101.4000015258789 C62.150001525878906,-102.5 63.04999923706055,-103.30000305175781 64.05000305175781,-103.0999984741211 C64.44999694824219,-103.0999984741211 70.75,-102.0999984741211 75.6500015258789,-98.9000015258789 C79.6500015258789,-96.19999694824219 92.1500015258789,-96.4000015258789 97.44999694824219,-96.5 C104.3499984741211,-96.5999984741211 107.55000305175781,-95 108.94999694824219,-94.0999984741211 C109.6259994506836,-93.79199981689453 110.06199645996094,-93.11399841308594 110.06199645996094,-92.37100219726562 C110.06199645996094,-91.3290023803711 109.20500183105469,-90.47100067138672 108.16200256347656,-90.47100067138672 C107.6240005493164,-90.47100067138672 107.11000061035156,-90.69999694824219 106.75,-91.0999984741211 C106.75,-91.0999984741211 106.75,-91 106.75,-91z"></path></g><g opacity="1" transform="matrix(1,0,0,1,525.05,304.65)"><path fill="rgb(255,255,255)" fill-opacity="1" d=" M-4.050000190734863,-17.25 C-4.050000190734863,-17.25 7.650000095367432,-3.75 7.650000095367432,-3.75 C7.75,-3.549999952316284 7.849999904632568,-3.3499999046325684 7.75,-3.049999952316284 C7.25,-1.649999976158142 5.349999904632568,3.75 4.449999809265137,8.649999618530273 C3.450000047683716,14.350000381469727 -0.3499999940395355,17.649999618530273 -4.349999904632568,10.649999618530273 C-7.849999904632568,4.349999904632568 -6.050000190734863,-11.350000381469727 -5.349999904632568,-16.850000381469727 C-5.150000095367432,-17.450000762939453 -4.349999904632568,-17.649999618530273 -4.050000190734863,-17.25z"></path></g><g opacity="1" transform="matrix(1,0,0,1,550.75,290.6)"><path fill="rgb(255,255,255)" fill-opacity="1" d=" M-0.550000011920929,11.5 C-1.149999976158142,11.899999618530273 -1.9500000476837158,11.800000190734863 -2.450000047683716,11.199999809265137 C-5.626999855041504,7.4029998779296875 -8.100000381469727,3.068000078201294 -9.75,-1.600000023841858 C-11.050000190734863,-7.300000190734863 -10.050000190734863,-10.199999809265137 -7.349999904632568,-11 C-4.650000095367432,-11.899999618530273 -1.0499999523162842,-9.600000381469727 1.350000023841858,-6.599999904632568 C3.6500000953674316,-3.5999999046325684 5.050000190734863,-1.7999999523162842 7.349999904632568,-1.399999976158142 C9.850000381469727,-1 11.050000190734863,2.299999952316284 8.75,4.599999904632568 C7.050000190734863,6.400000095367432 1.75,10 -0.44999998807907104,11.600000381469727 C-0.44999998807907104,11.600000381469727 -0.550000011920929,11.5 -0.550000011920929,11.5z"></path></g></g></g></g><defs><clipPath id="animationMask_yNdmffQ1pq"><rect width="1360" height="420" x="0" y="0"></rect></clipPath></defs></svg>